<svg viewBox="0 0 76 76" version="1.1" xmlns="http://www.w3.org/2000/svg" xmlns:xlink="http://www.w3.org/1999/xlink">
    <polygon id="Fill-1" points="0 75.3613 75.36 75.3613 75.36 0.0003 0 0.0003"></polygon>
    <path d="M37.6797,12.1523 C23.2227,12.1523 11.5017,23.8713 11.5017,38.3343 C11.5017,49.8943 18.9997,59.7053 29.4047,63.1703 C30.7147,63.4083 31.1927,62.5973 31.1927,61.9063 C31.1927,61.2853 31.1717,59.6383 31.1567,57.4533 C23.8747,59.0353 22.3397,53.9453 22.3397,53.9453 C21.1487,50.9223 19.4317,50.1193 19.4317,50.1193 C17.0557,48.4923 19.6137,48.5253 19.6137,48.5253 C22.2417,48.7113 23.6237,51.2223 23.6237,51.2223 C25.9567,55.2243 29.7497,54.0643 31.2427,53.3963 C31.4787,51.7033 32.1547,50.5543 32.9027,49.8983 C27.0887,49.2403 20.9787,46.9883 20.9787,36.9593 C20.9787,34.1053 21.9997,31.7653 23.6707,29.9373 C23.4037,29.2733 22.5057,26.6133 23.9297,23.0073 C23.9297,23.0073 26.1247,22.3043 31.1277,25.6933 C33.2157,25.1113 35.4577,24.8203 37.6817,24.8103 C39.9057,24.8203 42.1457,25.1113 44.2337,25.6933 C49.2347,22.3043 51.4297,23.0073 51.4297,23.0073 C52.8557,26.6133 51.9577,29.2733 51.6877,29.9373 C53.3627,31.7653 54.3787,34.1053 54.3787,36.9593 C54.3787,47.0173 48.2557,49.2303 42.4247,49.8793 C43.3637,50.6873 44.2027,52.2813 44.2027,54.7243 C44.2027,58.2243 44.1707,61.0473 44.1707,61.9063 C44.1707,62.6053 44.6447,63.4183 45.9717,63.1623 C56.3637,59.6973 63.8577,49.8903 63.8577,38.3343 C63.8577,23.8713 52.1407,12.1523 37.6797,12.1523" id="Fill-2" fill="#FAFAFA"></path>
</svg>