<svg width="76px" height="76px" viewBox="0 0 76 76" version="1.1" xmlns="http://www.w3.org/2000/svg" xmlns:xlink="http://www.w3.org/1999/xlink">
    <g id="Page-1" stroke="none" stroke-width="1" fill="none" fill-rule="evenodd">
        <g>
            <polygon id="Fill-1" points="0 75.3599 75.361 75.3599 75.361 -0.0001 0 -0.0001"></polygon>
            <g id="Group-6" transform="translate(12.000000, 11.359900)" fill="#FAFAFA">
                <path d="M6.2148,0.7515 C9.6138,0.7515 12.3708,3.5115 12.3708,6.9055 C12.3708,10.3035 9.6138,13.0635 6.2148,13.0635 C2.8028,13.0635 0.0518,10.3035 0.0518,6.9055 C0.0518,3.5115 2.8028,0.7515 6.2148,0.7515 L6.2148,0.7515 Z M0.8948,51.8905 L11.5278,51.8905 L11.5278,17.7325 L0.8948,17.7325 L0.8948,51.8905 Z" id="Fill-2"></path>
                <path d="M18.1934,17.7324 L28.3764,17.7324 L28.3764,22.4004 L28.5204,22.4004 C29.9364,19.7134 33.4044,16.8834 38.5724,16.8834 C49.3204,16.8834 51.3094,23.9544 51.3094,33.1544 L51.3094,51.8904 L40.6954,51.8904 L40.6954,35.2834 C40.6954,31.3184 40.6174,26.2224 35.1744,26.2224 C29.6454,26.2224 28.8034,30.5374 28.8034,34.9904 L28.8034,51.8904 L18.1934,51.8904 L18.1934,17.7324 Z" id="Fill-4"></path>
            </g>
        </g>
    </g>
</svg>