<?xml version="1.0" encoding="UTF-8" standalone="no"?>
<svg width="30px" height="18px" viewBox="0 0 30 18" version="1.1" xmlns="http://www.w3.org/2000/svg" xmlns:xlink="http://www.w3.org/1999/xlink">
    <!-- Generator: Sketch 3.8.1 (29687) - http://www.bohemiancoding.com/sketch -->
    <title>Behance</title>
    <desc>Created with Sketch.</desc>
    <defs></defs>
    <g id="Welcome" stroke="none" stroke-width="1" fill="none" fill-rule="evenodd">
        <g id="Mobile-Portrait" transform="translate(-225.000000, -571.000000)" fill="#4D157E">
            <g id="Social-Media" transform="translate(28.000000, 569.000000)">
                <path d="M216,5 L224,5 L224,3 L216,3 L216,5 L216,5 Z M217.928347,9.80874317 C217.436768,10.3479053 217.126749,11.0783242 217,12 L223,12 C222.936626,11.0163934 222.624893,10.273224 222.073366,9.76138434 C221.514987,9.25318761 220.828147,9 220.005995,9 C219.11533,9 218.419926,9.26958106 217.928347,9.80874317 L217.928347,9.80874317 L217.928347,9.80874317 Z M223.308493,6.61984474 C224.294491,7.03081029 225.106169,7.68292091 225.745343,8.5727802 C226.328225,9.3573508 226.702287,10.2675885 226.872976,11.3017952 C226.972847,11.9063561 227.012795,12.7826298 226.996453,13.9221252 L216.713382,13.9221252 C216.77512,15.2450267 217.261764,16.1739447 218.191471,16.7054828 C218.75438,17.0366327 219.431686,17.2030568 220.227021,17.2030568 C221.064121,17.2030568 221.748691,17.0009704 222.273467,16.5984959 C222.562185,16.3794275 222.816401,16.077147 223.034302,15.6899563 L226.802158,15.6899563 C226.702287,16.4711305 226.244697,17.2675885 225.434835,18.075934 C224.171014,19.3580786 222.400575,20 220.125335,20 C218.245946,20 216.588089,19.4599709 215.155396,18.3765163 C213.715439,17.2947598 213,15.5320233 213,13.0934013 C213,10.8059195 213.648253,9.05167394 214.942943,7.83066473 C216.241265,6.61305192 217.920912,6 219.989147,6 C221.218467,6 222.32431,6.20718098 223.308493,6.61984474 L223.308493,6.61984474 L223.308493,6.61984474 Z M201,12 L201,17 L205.73909,17 C206.585887,17 207.246982,16.8894042 207.716806,16.6699964 C208.572888,16.2597217 209,15.4819836 209,14.3296468 C209,13.3521227 208.587744,12.6831966 207.75766,12.3175169 C207.293408,12.1141634 206.641597,12.0071352 205.805942,12 L201,12 L201,12 Z M201,5 L201,9 L205.369231,9 C206.147009,9 206.781197,8.84993532 207.270085,8.54980595 C207.755556,8.24967658 208,7.71841311 208,6.95946529 C208,6.11254851 207.678632,5.55541182 207.035897,5.28288055 C206.478632,5.09486848 205.77094,5 204.911111,5 L201,5 L201,5 Z M210.576731,3.91817317 C211.135251,4.68372978 211.415381,5.59828735 211.415381,6.66527117 C211.415381,7.76308278 211.135251,8.64852521 210.569771,9.31646051 C210.253103,9.68981922 209.78854,10.0323501 209.174342,10.340628 C210.106948,10.6763083 210.809883,11.2055186 211.288366,11.9299715 C211.761629,12.6527117 212,13.5330162 212,14.5674596 C212,15.6344434 211.72857,16.5918173 211.183969,17.4378687 C210.839462,17.9979068 210.407957,18.4705994 209.889456,18.8542341 C209.306577,19.2943863 208.619302,19.5941009 207.82415,19.7585157 C207.028999,19.9212179 206.16947,20 205.240343,20 L197,20 L197,2 L205.837142,2 C208.067742,2.03254044 209.645865,2.67136061 210.576731,3.91817317 L210.576731,3.91817317 L210.576731,3.91817317 Z" id="Behance"></path>
            </g>
        </g>
    </g>
</svg>