<?xml version="1.0" encoding="UTF-8" standalone="no"?>
<svg width="23px" height="23px" viewBox="0 0 23 23" version="1.1" xmlns="http://www.w3.org/2000/svg" xmlns:xlink="http://www.w3.org/1999/xlink">
    <!-- Generator: Sketch 3.8.1 (29687) - http://www.bohemiancoding.com/sketch -->
    <title>Dribbble</title>
    <desc>Created with Sketch.</desc>
    <defs></defs>
    <g id="Welcome" stroke="none" stroke-width="1" fill="none" fill-rule="evenodd">
        <g id="Mobile-Portrait" transform="translate(-270.000000, -569.000000)" fill="#4D157E">
            <g id="Social-Media" transform="translate(28.000000, 569.000000)">
                <path d="M258.874503,19 C258.776403,18.4219327 258.263367,15.6081438 257,12.1542575 C260.108705,11.6593369 262.801149,12.5079608 263,12.5726304 C262.571807,15.2438822 261.035351,17.546913 258.874503,19 L258.874503,19 L258.874503,19 Z M253.20075,21 C250.844814,21 248.684535,20.1789819 247,18.8128079 C247.128652,18.9152709 247.21844,18.9796388 247.21844,18.9796388 C247.21844,18.9796388 249.083892,14.9914614 254.855803,13.0197044 C254.877245,13.0118227 254.900027,13.0065681 254.921469,13 C256.291075,16.4876847 256.855267,19.4091954 257,20.2433498 C255.832753,20.7293924 254.547574,21 253.20075,21 L253.20075,21 L253.20075,21 Z M244,11.6528277 C244,11.5521412 244.005465,11.4527623 244.008198,11.3533835 C244.184449,11.3573063 249.086697,11.4632233 254.195255,10 C254.479444,10.5322001 254.751335,11.0748611 255,11.6149068 C254.868836,11.6489049 254.739039,11.6868258 254.609241,11.7286695 C249.254751,13.3841125 246.538567,17.9947695 246.538567,17.9947695 C246.538567,17.9947695 246.542666,17.9986924 246.542666,18 C244.961868,16.3170971 244,14.0928408 244,11.6528277 L244,11.6528277 L244,11.6528277 Z M249.379866,3 C249.510067,3.178039 251.312752,5.69128725 253,8.77453633 C248.319463,10.0539329 244.256376,10.0028674 244,9.99872699 C244.632215,6.89339555 246.660403,4.31942082 249.379866,3 L249.379866,3 L249.379866,3 Z M251.06221,2 C251.06221,2.00270445 251.059505,2.0054089 251.059505,2.0054089 C251.059505,2.0054089 251.035162,2.0108178 251,2.0162267 C251.021638,2.0108178 251.040572,2.00811335 251.06221,2 L251.06221,2 L251.06221,2 Z M260,4.44889689 C259.975108,4.48536695 258.545175,6.61278703 254.753227,8 C253.037031,4.91895543 251.150738,2.47140928 251,2.2769023 C251.759219,2.09725349 252.551629,2 253.367548,2 C255.909342,2 258.231254,2.92660964 260,4.44889689 L260,4.44889689 L260,4.44889689 Z M264,11 C263.85258,10.9696035 260.401544,10.2704846 256.898561,10.6854626 C256.825553,10.5215859 256.753949,10.3563877 256.678133,10.1911894 C256.466128,9.72070485 256.237276,9.25550661 256,8.79823789 C260.026676,7.25066079 261.660934,5.02643172 261.68059,5 C263.109863,6.63480176 263.976132,8.72290749 264,11 L264,11 L264,11 Z M264.76739,9.18566641 C264.615923,8.4473514 264.388722,7.71850197 264.095255,7.02345817 C263.808549,6.34193662 263.450168,5.68475513 263.034986,5.07084485 C262.625213,4.46234347 262.151879,3.88899994 261.632563,3.36974543 C261.111895,2.84913869 260.539837,2.37721206 259.929911,1.96613558 C259.315929,1.54965019 258.65867,1.19401493 257.977068,0.904638721 C257.281943,0.612558057 256.55436,0.385384208 255.815958,0.235287201 C255.058623,0.0797812923 254.27965,0 253.500676,0 C252.72035,0 251.941377,0.0797812923 251.184042,0.235287201 C250.44564,0.385384208 249.718057,0.612558057 249.022932,0.904638721 C248.34133,1.19401493 247.684071,1.54965019 247.068736,1.96613558 C246.460163,2.37721206 245.888105,2.84913869 245.367437,3.36974543 C244.848121,3.88899994 244.376139,4.46234347 243.965014,5.07084485 C243.549832,5.68475513 243.191451,6.34193662 242.904745,7.02345817 C242.609925,7.71850197 242.384077,8.4473514 242.23261,9.18566641 C242.078438,9.94156035 242,10.7204421 242,11.4993239 C242,12.2809101 242.078438,13.0597919 242.23261,13.817038 C242.384077,14.555353 242.609925,15.2828503 242.904745,15.9765418 C243.191451,16.6580634 243.549832,17.3179493 243.965014,17.9318596 C244.376139,18.540361 244.848121,19.1110001 245.367437,19.632959 C245.888105,20.1522135 246.460163,20.6227879 247.068736,21.0352167 C247.684071,21.4503498 248.34133,21.8073373 249.022932,22.0953613 C249.718057,22.3901464 250.44564,22.6146158 251.184042,22.7647128 C251.941377,22.9215709 252.72035,23 253.500676,23 C254.27965,23 255.058623,22.9215709 255.815958,22.7647128 C256.55436,22.6146158 257.281943,22.3901464 257.977068,22.0953613 C258.65867,21.8073373 259.315929,21.4503498 259.929911,21.0352167 C260.539837,20.6227879 261.111895,20.1522135 261.632563,19.632959 C262.151879,19.1110001 262.625213,18.540361 263.034986,17.9318596 C263.450168,17.3179493 263.808549,16.6580634 264.095255,15.9765418 C264.388722,15.2828503 264.615923,14.555353 264.76739,13.817038 C264.921562,13.0597919 265,12.2809101 265,11.4993239 C265,10.7204421 264.921562,9.94156035 264.76739,9.18566641 L264.76739,9.18566641 L264.76739,9.18566641 Z" id="Dribbble"></path>
            </g>
        </g>
    </g>
</svg>