<?xml version="1.0" encoding="UTF-8" standalone="no"?>
<svg width="23px" height="23px" viewBox="0 0 23 23" version="1.1" xmlns="http://www.w3.org/2000/svg" xmlns:xlink="http://www.w3.org/1999/xlink">
    <!-- Generator: Sketch 3.8.1 (29687) - http://www.bohemiancoding.com/sketch -->
    <title>Facebook</title>
    <desc>Created with Sketch.</desc>
    <defs></defs>
    <g id="Welcome" stroke="none" stroke-width="1" fill="none" fill-rule="evenodd">
        <g id="Mobile-Portrait" transform="translate(-111.000000, -569.000000)" fill="#4D157E">
            <g id="Social-Media" transform="translate(28.000000, 569.000000)">
                <path d="M84.2694234,23 C83.5681348,23 83,22.4315126 83,21.7304972 L83,1.26941359 C83,0.56821965 83.5682241,0 84.2694234,0 L104.730666,0 C105.431687,0 106,0.56821965 106,1.26941359 L106,21.7304972 C106,22.4316019 105.431597,23 104.730666,23 L98.8696671,23 L98.8696671,14.0931324 L101.859291,14.0931324 L102.306945,10.6219681 L98.8696671,10.6219681 L98.8696671,8.40584901 C98.8696671,7.40086684 99.1487368,6.71600464 100.589868,6.71600464 L102.427962,6.71520144 L102.427962,3.61056422 C102.11007,3.56826233 101.018959,3.47375242 99.7495353,3.47375242 C97.0993997,3.47375242 95.2850452,5.091398 95.2850452,8.06207924 L95.2850452,10.6219681 L92.2877459,10.6219681 L92.2877459,14.0931324 L95.2850452,14.0931324 L95.2850452,23 L84.2694234,23 Z" id="Facebook"></path>
            </g>
        </g>
    </g>
</svg>