<?xml version="1.0" encoding="UTF-8" standalone="no"?>
<svg width="23px" height="23px" viewBox="0 0 23 23" version="1.1" xmlns="http://www.w3.org/2000/svg" xmlns:xlink="http://www.w3.org/1999/xlink">
    <!-- Generator: Sketch 3.8.1 (29687) - http://www.bohemiancoding.com/sketch -->
    <title>Github</title>
    <desc>Created with Sketch.</desc>
    <defs></defs>
    <g id="Welcome" stroke="none" stroke-width="1" fill="none" fill-rule="evenodd">
        <g id="Mobile-Portrait" transform="translate(-187.000000, -569.000000)" fill="#4D157E">
            <g id="Social-Media" transform="translate(28.000000, 569.000000)">
                <path d="M170.499281,0 C164.149125,0 159,5.27878975 159,11.7919747 C159,17.000754 162.29475,21.4202573 166.865281,22.9796485 C167.440281,23.0879805 167.650156,22.723926 167.650156,22.4114582 C167.650156,22.1314163 167.640094,21.3900422 167.634344,20.4062108 C164.435187,21.1188438 163.760281,18.825448 163.760281,18.825448 C163.23775,17.4635601 162.483781,17.1009795 162.483781,17.1009795 C161.439437,16.3691858 162.562844,16.3839249 162.562844,16.3839249 C163.716437,16.4672005 164.323781,17.5991593 164.323781,17.5991593 C165.350156,19.4010078 167.0155,18.8807195 167.671,18.578569 C167.775219,17.8165602 168.072781,17.2970088 168.40125,17.0022279 C165.847531,16.7044991 163.163,15.6934005 163.163,11.1751456 C163.163,9.88768981 163.610781,8.83532184 164.346781,8.01067215 C164.228187,7.71220644 163.833594,6.51392191 164.458906,4.89041586 C164.458906,4.89041586 165.424906,4.57352634 167.621406,6.09901773 C168.53925,5.83739964 169.5225,5.70695907 170.500719,5.70180041 C171.4775,5.70695907 172.461469,5.83739964 173.380031,6.09901773 C175.575094,4.57352634 176.538937,4.89041586 176.538937,4.89041586 C177.166406,6.51392191 176.771813,7.71220644 176.653219,8.01067215 C177.390656,8.83532184 177.835562,9.88768981 177.835562,11.1751456 C177.835562,15.7044548 175.146719,16.7015513 172.585094,16.9933845 C172.997656,17.3574389 173.365656,18.0767044 173.365656,19.1769743 C173.365656,20.7533154 173.351281,22.0245582 173.351281,22.4114582 C173.351281,22.7268738 173.558281,23.0938761 174.141906,22.9781746 C178.708125,21.4158356 182,16.9992801 182,11.7919747 C182,5.27878975 176.850875,0 170.499281,0" id="Github"></path>
            </g>
        </g>
    </g>
</svg>