<?xml version="1.0" encoding="UTF-8" standalone="no"?>
<svg width="23px" height="23px" viewBox="0 0 23 23" version="1.1" xmlns="http://www.w3.org/2000/svg" xmlns:xlink="http://www.w3.org/1999/xlink">
    <!-- Generator: Sketch 3.8.1 (29687) - http://www.bohemiancoding.com/sketch -->
    <title>Instagram</title>
    <desc>Created with Sketch.</desc>
    <defs></defs>
    <g id="Welcome" stroke="none" stroke-width="1" fill="none" fill-rule="evenodd">
        <g id="Mobile-Portrait" transform="translate(-149.000000, -569.000000)" fill="#4D157E">
            <g id="Social-Media" transform="translate(28.000000, 569.000000)">
                <path d="M141.269231,21 L123.730769,21 C123.327385,21 123,20.664 123,20.25 L123,9 L125.923077,9 C125.542346,9.5625 125.413731,10.61175 125.413731,11.27775 C125.413731,15.294 128.605,18.56175 132.527038,18.56175 C136.449808,18.56175 139.641077,15.294 139.641077,11.27775 C139.641077,10.61175 139.549,9.57825 139.076923,9 L142,9 L142,20.25 C142,20.664 141.672615,21 141.269231,21 M132.499634,7 C134.985293,7 137,9.01490349 137,11.4996335 C137,13.9850965 134.985293,16 132.499634,16 C130.014707,16 128,13.9850965 128,11.4996335 C128,9.01490349 130.014707,7 132.499634,7 M138.8,3 L141.2,3 C141.6416,3 142,3.3584 142,3.8 L142,6.2 C142,6.6416 141.6416,7 141.2,7 L138.8,7 C138.3584,7 138,6.6416 138,6.2 L138,3.8 C138,3.3584 138.3584,3 138.8,3 M141.265875,0 L123.734125,0 C122.224031,0 121,1.22115625 121,2.72765625 L121,20.2723438 C121,21.7788438 122.224031,23 123.734125,23 L141.265875,23 C142.775969,23 144,21.7788438 144,20.2723438 L144,2.72765625 C144,1.22115625 142.775969,0 141.265875,0" id="Instagram"></path>
            </g>
        </g>
    </g>
</svg>