<?xml version="1.0" encoding="UTF-8" standalone="no"?>
<svg width="25px" height="23px" viewBox="0 0 25 23" version="1.1" xmlns="http://www.w3.org/2000/svg" xmlns:xlink="http://www.w3.org/1999/xlink">
    <!-- Generator: Sketch 3.8.1 (29687) - http://www.bohemiancoding.com/sketch -->
    <title>LinkedIn</title>
    <desc>Created with Sketch.</desc>
    <defs></defs>
    <g id="Welcome" stroke="none" stroke-width="1" fill="none" fill-rule="evenodd">
        <g id="Mobile-Portrait" transform="translate(-28.000000, -569.000000)" fill="#4D157E">
            <g id="Social-Media" transform="translate(28.000000, 569.000000)">
                <path d="M25,23 L19.3146797,23 L19.3146797,14.7990851 C19.3146797,12.6525068 18.4253559,11.1870974 16.4697509,11.1870974 C14.9739324,11.1870974 14.1420819,12.1759873 13.7548932,13.1290262 C13.6096975,13.4711045 13.6323843,13.9476239 13.6323843,14.4241434 L13.6323843,23 L8,23 C8,23 8.07259786,8.47287835 8,7.15236673 L13.6323843,7.15236673 L13.6323843,9.63952946 C13.9651246,8.5520493 15.7649466,7 18.6370996,7 C22.2004448,7 25,9.27952572 25,14.1881244 L25,23 L25,23 Z M2.98508946,5 L2.94930417,5 C1.16003976,5 0,3.89839717 0,2.50203749 C0,1.07851127 1.194334,0 3.0193837,0 C4.84294235,0 5.96421471,1.07579462 6,2.49796251 C6,3.8943222 4.84294235,5 2.98508946,5 L2.98508946,5 L2.98508946,5 Z M1,7 L6,7 L6,23 L1,23 L1,7 L1,7 Z" id="LinkedIn"></path>
            </g>
        </g>
    </g>
</svg>