<?xml version="1.0" encoding="UTF-8" standalone="no"?>
<svg width="304px" height="64px" viewBox="0 0 304 64" version="1.1" xmlns="http://www.w3.org/2000/svg" xmlns:xlink="http://www.w3.org/1999/xlink">
    <!-- Generator: Sketch 3.8.3 (29802) - http://www.bohemiancoding.com/sketch -->
    <title>Logo - 64x64 (White)</title>
    <desc>Created with Sketch.</desc>
    <defs></defs>
    <g id="Symbols" stroke="none" stroke-width="1" fill="none" fill-rule="evenodd">
        <g id="Logo---64x64-(White)">
            <g id="Group-2" transform="translate(63.000000, 7.000000)" font-size="22" letter-spacing="1" fill="#000000">
                <text id="web-developer-&amp;-desi" font-family="AdventPro-Regular, Advent Pro" font-weight="normal">
                    <tspan x="0" y="45">web developer &amp; designe</tspan>
                    <tspan x="232.55" y="45">r</tspan>
                </text>
                <text id="Johnny-Hu" font-family="AdventPro-Bold, Advent Pro" font-weight="bold">
                    <tspan x="0" y="21">Johnny H</tspan>
                    <tspan x="85.99" y="21">u</tspan>
                </text>
            </g>
            <g id="Logo" transform="translate(0.000000, 7.000000)">
                <text id="J" transform="translate(25.000000, 39.500000) scale(-1, 1) rotate(90.000000) translate(-25.000000, -39.500000) " font-family="AdventPro-Medium, Advent Pro" font-size="28" font-weight="400" fill="#000000">
                    <tspan x="22.102" y="50">J</tspan>
                </text>
                <polygon id="Left-Bar-(Big)" fill="#1B95BF" points="10 3.15087891 10 47.9316406 6 45.7496338 6 5.70556641"></polygon>
                <polygon id="Left-Bar-(Small)" fill="#1B95BF" points="14 0.574951172 14 50.151622 12 49.0958252 12 1.84936523"></polygon>
                <g id="Warby-Glasses" transform="translate(0.000000, 13.000000)" fill="#000000">
                    <path d="M24,2.57592475 C21.2444231,2.53879273 21.1270377,1.75631233 20.1290316,1.28796237 C19.1310256,0.819612419 17.3861312,0.00867106236 10.4516129,0 C3.54911211,0.008671083 0,1.28796237 0,1.28796237 L0.0967741935,6.0885494 C0.0967741935,6.0885494 0.643242558,6.29218218 0.967741935,6.67398684 C1.24795443,7.06196361 1.2913004,7.38496905 1.5483871,8.43029917 C2.02930439,10.6201727 2.67784653,14.387066 4.16129032,16.1580734 C5.64281808,18.0050442 9.95277062,18.1485606 14.0323111,17.9143857 C18.1118516,17.6802109 19.4500265,15.3298161 20.1290323,13.5821487 C20.7412924,11.9270063 22.0645161,7.49359926 22.0645161,7.49359926 C22.0645161,7.49359926 22.5887657,6.1651357 24,6.20563689 M4.44584608,6.12498755 C5.55973454,4.32784497 7.77987045,4.03337752 8.88679134,4.00232132 C9.99371222,3.97126512 17.6547104,4.24082798 18.9233276,5.4789587 C20.1919449,6.71708941 20.1172191,8.66283418 19.8115167,9.81658099 C19.43351,10.892415 18.2312875,14.9028711 16.4363983,15.2616813 C16.4363983,15.2616813 14.2152761,16 11.3737207,16 C9.15900761,16 6.72580192,15.4022635 5.68931075,14.4310728 C4.69293098,13.5093977 4.09057046,10.4626098 4.09057046,10.4626098 C3.7586496,7.19668092 4.44584608,6.12498755 4.44584608,6.12498755 L4.44584608,6.12498755 L4.44584608,6.12498755 L4.44584608,6.12498755 L4.44584608,6.12498755 L4.44584608,6.12498755 L4.44584608,6.12498755 L4.44584608,6.12498755 L4.44584608,6.12498755 L4.44584608,6.12498755 L4.44584608,6.12498755 L4.44584608,6.12498755 L4.44584608,6.12498755 L4.44584608,6.12498755 L4.44584608,6.12498755" id="Combined-Shape-Copy"></path>
                    <path d="M48,2.57592475 C45.2444231,2.53879273 45.1270377,1.75631233 44.1290316,1.28796237 C43.1310256,0.819612419 41.3861312,0.00867106236 34.4516129,0 C27.5491121,0.008671083 24,1.28796237 24,1.28796237 L24.0967742,6.0885494 C24.0967742,6.0885494 24.6432426,6.29218218 24.9677419,6.67398684 C25.2479544,7.06196361 25.2913004,7.38496905 25.5483871,8.43029917 C26.0293044,10.6201727 26.6778465,14.387066 28.1612903,16.1580734 C29.6428181,18.0050442 33.9527706,18.1485606 38.0323111,17.9143857 C42.1118516,17.6802109 43.4500265,15.3298161 44.1290323,13.5821487 C44.7412924,11.9270063 46.0645161,7.49359926 46.0645161,7.49359926 C46.0645161,7.49359926 46.5887657,6.1651357 48,6.20563689 M28.4458461,6.12498755 C29.5597345,4.32784497 31.7798705,4.03337752 32.8867913,4.00232132 C33.9937122,3.97126512 41.6547104,4.24082798 42.9233276,5.4789587 C44.1919449,6.71708941 44.1172191,8.66283418 43.8115167,9.81658099 C43.43351,10.892415 42.2312875,14.9028711 40.4363983,15.2616813 C40.4363983,15.2616813 38.2152761,16 35.3737207,16 C33.1590076,16 30.7258019,15.4022635 29.6893108,14.4310728 C28.692931,13.5093977 28.0905705,10.4626098 28.0905705,10.4626098 C27.7586496,7.19668092 28.4458461,6.12498755 28.4458461,6.12498755 L28.4458461,6.12498755 L28.4458461,6.12498755 L28.4458461,6.12498755 L28.4458461,6.12498755 L28.4458461,6.12498755 L28.4458461,6.12498755 L28.4458461,6.12498755 L28.4458461,6.12498755 L28.4458461,6.12498755 L28.4458461,6.12498755 L28.4458461,6.12498755 L28.4458461,6.12498755 L28.4458461,6.12498755 L28.4458461,6.12498755" id="Combined-Shape-Copy-2" transform="translate(36.000000, 9.000000) scale(-1, 1) translate(-36.000000, -9.000000) "></path>
                </g>
            </g>
        </g>
    </g>
</svg>