<?xml version="1.0" encoding="UTF-8" standalone="no"?>
<svg width="26px" height="30px" viewBox="0 0 26 30" version="1.1" xmlns="http://www.w3.org/2000/svg" xmlns:xlink="http://www.w3.org/1999/xlink">
    <!-- Generator: Sketch 3.8.3 (29802) - http://www.bohemiancoding.com/sketch -->
    <title>Logo</title>
    <desc>Created with Sketch.</desc>
    <defs></defs>
    <g id="Symbols" stroke="none" stroke-width="1" fill="none" fill-rule="evenodd">
        <g id="Logo---32x32-(White)" transform="translate(-3.000000, -1.000000)">
            <g id="Logo" transform="translate(3.000000, 3.000000)">
                <polygon id="Polygon-2" stroke="#FFFFFF" stroke-width="4" stroke-linecap="round" stroke-linejoin="round" fill="#FFFFFF" points="13 0 24 7 24 19 13 26 2 20 2 7"></polygon>
                <text id="J" transform="translate(13.500000, 20.000000) scale(-1, 1) rotate(90.000000) translate(-13.500000, -20.000000) " font-family="AdventPro-Medium, Advent Pro" font-size="14" font-weight="400" fill="#000000">
                    <tspan x="12.051" y="25">J</tspan>
                </text>
                <polygon id="Left-Bar-(Big)" fill="#1B95BF" points="6 2.07543945 6 24.4658203 4 23.3748169 4 3.3527832"></polygon>
                <polygon id="Left-Bar-(Small)" fill="#1B95BF" points="8 0.787475586 8 25.575811 7 25.0479126 7 1.42468262"></polygon>
                <g id="Warby-Glasses" transform="translate(1.000000, 7.000000)" fill="#000000">
                    <path d="M12,1.28796237 C10.6222116,1.26939636 10.5635189,0.878156164 10.0645158,0.643981187 C9.56551278,0.40980621 8.6930656,0.00433553118 5.22580645,0 C1.77455606,0.0043355415 0,0.643981187 0,0.643981187 L0.0483870968,3.0442747 C0.0483870968,3.0442747 0.321621279,3.14609109 0.483870968,3.33699342 C0.623977217,3.5309818 0.645650202,3.69248453 0.774193548,4.21514959 C1.0146522,5.31008633 1.33892326,7.19353301 2.08064516,8.07903671 C2.82140904,9.00252209 4.97638531,9.0742803 7.01615556,8.95719287 C9.05592581,8.84010544 9.72501326,7.66490803 10.0645161,6.79107433 C10.3706462,5.96350316 11.0322581,3.74679963 11.0322581,3.74679963 C11.0322581,3.74679963 11.2943829,3.08256785 12,3.10281844 M2.22292304,3.06249377 C2.77986727,2.16392249 3.88993523,2.01668876 4.44339567,2.00116066 C4.99685611,1.98563256 8.82735519,2.12041399 9.46166381,2.73947935 C10.0959724,3.35854471 10.0586095,4.33141709 9.90575834,4.90829049 C9.716755,5.44620751 9.11564373,7.45143556 8.21819914,7.63084066 C8.21819914,7.63084066 7.10763807,8 5.68686034,8 C4.57950381,8 3.36290096,7.70113176 2.84465538,7.21553639 C2.34646549,6.75469884 2.04528523,5.23130492 2.04528523,5.23130492 C1.8793248,3.59834046 2.22292304,3.06249377 2.22292304,3.06249377 L2.22292304,3.06249377 L2.22292304,3.06249377 L2.22292304,3.06249377 L2.22292304,3.06249377 L2.22292304,3.06249377 L2.22292304,3.06249377 L2.22292304,3.06249377 L2.22292304,3.06249377 L2.22292304,3.06249377 L2.22292304,3.06249377 L2.22292304,3.06249377 L2.22292304,3.06249377 L2.22292304,3.06249377 L2.22292304,3.06249377" id="Combined-Shape-Copy"></path>
                    <path d="M24,1.28796237 C22.6222116,1.26939636 22.5635189,0.878156164 22.0645158,0.643981187 C21.5655128,0.40980621 20.6930656,0.00433553118 17.2258065,0 C13.7745561,0.0043355415 12,0.643981187 12,0.643981187 L12.0483871,3.0442747 C12.0483871,3.0442747 12.3216213,3.14609109 12.483871,3.33699342 C12.6239772,3.5309818 12.6456502,3.69248453 12.7741935,4.21514959 C13.0146522,5.31008633 13.3389233,7.19353301 14.0806452,8.07903671 C14.821409,9.00252209 16.9763853,9.0742803 19.0161556,8.95719287 C21.0559258,8.84010544 21.7250133,7.66490803 22.0645161,6.79107433 C22.3706462,5.96350316 23.0322581,3.74679963 23.0322581,3.74679963 C23.0322581,3.74679963 23.2943829,3.08256785 24,3.10281844 M14.222923,3.06249377 C14.7798673,2.16392249 15.8899352,2.01668876 16.4433957,2.00116066 C16.9968561,1.98563256 20.8273552,2.12041399 21.4616638,2.73947935 C22.0959724,3.35854471 22.0586095,4.33141709 21.9057583,4.90829049 C21.716755,5.44620751 21.1156437,7.45143556 20.2181991,7.63084066 C20.2181991,7.63084066 19.1076381,8 17.6868603,8 C16.5795038,8 15.362901,7.70113176 14.8446554,7.21553639 C14.3464655,6.75469884 14.0452852,5.23130492 14.0452852,5.23130492 C13.8793248,3.59834046 14.222923,3.06249377 14.222923,3.06249377 L14.222923,3.06249377 L14.222923,3.06249377 L14.222923,3.06249377 L14.222923,3.06249377 L14.222923,3.06249377 L14.222923,3.06249377 L14.222923,3.06249377 L14.222923,3.06249377 L14.222923,3.06249377 L14.222923,3.06249377 L14.222923,3.06249377 L14.222923,3.06249377 L14.222923,3.06249377 L14.222923,3.06249377" id="Combined-Shape-Copy-2" transform="translate(18.000000, 4.500000) scale(-1, 1) translate(-18.000000, -4.500000) "></path>
                </g>
            </g>
        </g>
    </g>
</svg>