<?xml version="1.0" encoding="UTF-8" standalone="no"?>
<svg width="28px" height="23px" viewBox="0 0 28 23" version="1.1" xmlns="http://www.w3.org/2000/svg" xmlns:xlink="http://www.w3.org/1999/xlink">
    <!-- Generator: Sketch 3.8.1 (29687) - http://www.bohemiancoding.com/sketch -->
    <title>Twitter</title>
    <desc>Created with Sketch.</desc>
    <defs></defs>
    <g id="Welcome" stroke="none" stroke-width="1" fill="none" fill-rule="evenodd">
        <g id="Mobile-Portrait" transform="translate(-68.000000, -569.000000)" fill="#4D157E">
            <g id="Social-Media" transform="translate(28.000000, 569.000000)">
                <path d="M68,2.72278801 C66.9711804,3.18461538 65.8634736,3.4969303 64.701532,3.63647526 C65.8881258,2.91881546 66.7986148,1.78085952 67.2275635,0.425279884 C66.1165698,1.0897797 64.8888889,1.57320332 63.5773904,1.83235825 C62.5321359,0.704369809 61.038211,0 59.3848682,0 C56.2145918,0 53.6425427,2.59985554 53.6425427,5.80606717 C53.6425427,6.26124955 53.6918472,6.70314193 53.7904561,7.12842181 C49.0161413,6.88587938 44.7841756,4.57674251 41.9491695,1.05987721 C41.4544814,1.92040448 41.1718025,2.91881546 41.1718025,3.98201517 C41.1718025,5.99544962 42.1858308,7.77298664 43.7274168,8.8145901 C42.7873452,8.78634886 41.899865,8.52221018 41.1241416,8.0902853 L41.1241416,8.16171903 C41.1241416,10.9758758 43.1045372,13.3232214 45.7341081,13.8548212 C45.2525679,13.9910437 44.7447321,14.0591549 44.2204613,14.0591549 C43.8506779,14.0591549 43.4891119,14.0242687 43.1390503,13.9561575 C43.8703997,16.2619718 45.9904913,17.9414951 48.5050185,17.9863489 C46.5394142,19.5446009 44.0610436,20.4732394 41.3706638,20.4732394 C40.907202,20.4732394 40.4486705,20.4466594 40,20.3934995 C42.5424664,22.0381365 45.563186,23 48.8057757,23 C59.3733639,23 65.1502025,14.1538462 65.1502025,6.48053449 C65.1502025,6.22802456 65.1452721,5.97551463 65.1354112,5.72798844 C66.2579093,4.90899242 67.232494,3.88732394 68,2.72278801" id="Twitter"></path>
            </g>
        </g>
    </g>
</svg>